<svg width="18" height="23" viewBox="0 0 18 23" fill="none" xmlns="http://www.w3.org/2000/svg">
<path d="M15.6504 0.687128L17.7855 18.3169C17.999 19.9841 16.8094 21.497 15.1623 21.7131L5.52369 22.9173C3.87659 23.1334 2.38199 21.9293 2.16849 20.262L0.00288989 2.47789C-0.0276101 2.16914 0.185889 1.86039 0.521389 1.82951L2.07699 1.64426C2.38199 1.61339 2.68709 1.82951 2.71759 2.16914L4.73069 18.6874C4.82219 19.521 5.58469 20.1076 6.40829 20.015L13.6372 19.1196C14.4608 19.027 15.0403 18.2551 14.9488 17.4215L12.9357 0.841508C12.9052 0.532748 13.1187 0.223998 13.4542 0.193128L14.8573 0.0078678C15.2233 -0.0538822 15.6199 0.254878 15.6504 0.687128Z" fill="white"/>
<path d="M12.479 17.4827L7.14119 18.1311C6.77509 18.1928 6.40909 17.915 6.37859 17.5136L5.70759 12.0487L5.24999 8.22014C5.21949 8.06584 5.37209 7.97314 5.49409 8.00404L6.28709 8.25104C7.87319 8.71414 9.55079 8.68334 11.1064 8.09664L11.7469 7.84964C11.869 7.81884 11.991 7.88054 11.991 8.00404L13.028 16.68C13.1195 17.0813 12.845 17.4518 12.479 17.4827Z" fill="#0B66EF"/>
</svg>
